<svg id="Layer_1" data-name="Layer 1" xmlns="http://www.w3.org/2000/svg" viewBox="0 0 135.53 135.12"><defs><style>.cls-1{fill:#8c6239;}.cls-1,.cls-2{stroke:#18120b;stroke-miterlimit:10;stroke-width:6px;}.cls-2{fill:#a67c52;}</style></defs><title>dennebol-logo</title><path class="cls-1" d="M60.53,70.33c-17.06-7.2-14.89-32.56-8.82-37.91,12.61,2.64,20.6,27.09,20.6,27.09Z"/><path class="cls-1" d="M72.47,65.88C56.1,57.22,60.47,32.15,67,27.34c12.33,3.73,18.16,28.79,18.16,28.79Z"/><path class="cls-2" d="M72.14,71.15c18.08-4,20.51-29.35,15.5-35.71-12.88.33-25.14,23-25.14,23Z"/><path class="cls-2" d="M65.39,62.28C60.9,44.83,42.77,45.58,38.73,51.34c1.41,12.73,18.52,22.09,18.52,22.09Z"/><path class="cls-1" d="M70.26,65.83c4.29-17.5,22.43-17,26.53-11.26C95.53,67.32,78.53,76.88,78.53,76.88Z"/><path class="cls-1" d="M63.8,75.14c-4.49-17.45-22.62-16.71-26.66-11,1.41,12.74,18.52,22.09,18.52,22.09Z"/><path class="cls-1" d="M71.9,80c4.28-17.5,22.42-17,26.53-11.25-1.26,12.75-18.26,22.3-18.26,22.3Z"/><path class="cls-1" d="M51.6,81.26S63.37,47.63,81,81.09C73.47,88.36,64.52,93.3,51.6,81.26Z"/><path class="cls-2" d="M63.76,91.11C59.27,73.67,41.14,74.41,37.1,80.17c.89,8,8,14.69,13.14,18.54a6.36,6.36,0,0,0,8.95-1.34Z"/><path class="cls-1" d="M74.37,91.3c3.63-14.41,19-14,22.46-9.27-.79,7.78-8.9,14.12-13,16.87a3,3,0,0,1-4.07-.66Z"/><path class="cls-1" d="M52.42,98.89s12.79-35.44,31.93-.19C81.59,101.72,59.58,106.73,52.42,98.89Z"/></svg>