<svg id="Layer_1" data-name="Layer 1" xmlns="http://www.w3.org/2000/svg" viewBox="0 0 259.37 74.39"><defs><style>.cls-1{fill:#8c6239;}.cls-1,.cls-2{stroke:#18120b;stroke-miterlimit:10;stroke-width:5px;}.cls-2{fill:#a67c52;}.cls-3{font-size:53.43px;font-family:Mousse-Regular, Mousse;}</style></defs><title>dennebol-logo</title><path class="cls-1" d="M26.31,41.35C13.46,35.93,15.1,16.84,19.67,12.8c9.49,2,15.51,20.4,15.51,20.4Z"/><path class="cls-1" d="M35.3,38c-12.33-6.52-9-25.4-4.13-29,9.28,2.81,13.67,21.68,13.67,21.68Z"/><path class="cls-2" d="M35.05,42c13.62-3,15.44-22.1,11.67-26.89C37,15.33,27.8,32.36,27.8,32.36Z"/><path class="cls-2" d="M30,35.29c-3.38-13.14-17-12.58-20.07-8.24C11,36.64,23.84,43.68,23.84,43.68Z"/><path class="cls-1" d="M33.63,38c3.23-13.18,16.89-12.78,20-8.47-1,9.6-13.75,16.79-13.75,16.79Z"/><path class="cls-1" d="M28.77,45c-3.38-13.14-17-12.58-20.07-8.24,1.06,9.59,13.94,16.63,13.94,16.63Z"/><path class="cls-1" d="M34.87,48.63c3.23-13.17,16.89-12.77,20-8.47C53.9,49.76,41.1,57,41.1,57Z"/><path class="cls-1" d="M19.59,49.58s8.86-25.32,22.13-.13C36.05,54.92,29.32,58.64,19.59,49.58Z"/><path class="cls-2" d="M28.74,57c-3.38-13.14-17-12.58-20.07-8.24.67,6,6,11.06,9.89,14a4.78,4.78,0,0,0,6.74-1Z"/><path class="cls-1" d="M36.73,57.14c2.74-10.85,14.3-10.52,16.91-7-.59,5.86-6.7,10.63-9.82,12.7a2.27,2.27,0,0,1-3.07-.5Z"/><path class="cls-1" d="M20.21,62.85s9.62-26.68,24-.14C42.17,65,25.6,68.76,20.21,62.85Z"/><text class="cls-3" transform="translate(75.22 58.27)">Dennebol</text></svg>